<?xml version="1.0" encoding="UTF-8" standalone="no"?>
<!-- Created with Inkscape (http://www.inkscape.org/) -->

<svg
   width="70.091522mm"
   height="65mm"
   viewBox="0 0 70.091522 65"
   version="1.1"
   id="svg1"
   xmlns="http://www.w3.org/2000/svg"
   xmlns:svg="http://www.w3.org/2000/svg">
  <defs
     id="defs1" />
  <g
     id="layer1"
     transform="translate(-72.000001,-2.0000038)">
    <path
       style="fill:#82695d;fill-opacity:1;stroke:none;stroke-width:0.0796507;stroke-linecap:round;stroke-linejoin:round;stroke-dasharray:none;stroke-opacity:1"
       d="M 108.50138,50.000004 H 77.545757 v 3.492585 h 60.191483 v -3.492585 z"
       id="path13" />
    <path
       id="path14"
       style="fill:#e8c3b1;stroke-width:0.882761;stroke-linecap:round;stroke-linejoin:round"
       d="m 76.545758,4.0000036 c 20.565894,-2.6666664 41.333342,-2.6666664 62.302332,0 2.26357,15.0000014 2.26357,30.6666674 0,46.9999974 -20.76744,2.621646 -41.534891,2.711384 -62.302332,0 -2.85451,-15.666665 -2.473124,-31.333331 0,-46.9999974 z" />
    <path
       id="path15"
       style="fill:#da9f7e;fill-opacity:1;stroke-width:0.807632;stroke-linecap:round;stroke-linejoin:round"
       d="m 79.184037,6.0000032 c 18.815606,-2.4397163 37.815613,-2.4397163 57.000003,0 2.07093,13.7234068 2.07093,28.0567398 0,43.0000008 -19,2.398527 -38.000003,2.480628 -57.000003,0 -2.611573,-14.333333 -2.262646,-28.666667 0,-43.0000008 z" />
    <path
       id="path16"
       style="fill:#131313;fill-opacity:1;stroke-width:0.741304;stroke-linecap:round;stroke-linejoin:round"
       d="m 81.513266,7.7657219 c 17.270348,-2.2393513 34.709954,-2.2393513 52.318804,0 1.90085,12.5963521 1.90085,25.7525401 0,39.4685661 -17.4396,2.201544 -34.879206,2.276903 -52.318804,0 -2.397094,-13.156188 -2.076823,-26.312377 0,-39.4685661 z" />
    <rect
       style="fill:#e8c3b1;fill-opacity:1;stroke-width:0.0890874;stroke-linecap:round;stroke-linejoin:round"
       id="rect16"
       width="70.091515"
       height="13.507411"
       x="72"
       y="53.492588" />
    <rect
       style="fill:#82695d;fill-opacity:1;stroke-width:0.0699907;stroke-linecap:round;stroke-linejoin:round"
       id="rect17"
       width="16.999996"
       height="0.68203437"
       x="122.54576"
       y="62.31797" />
    <circle
       style="fill:#9a4545;fill-opacity:1;stroke-width:0.0649999;stroke-linecap:round;stroke-linejoin:round"
       id="circle17"
       cx="137.54576"
       cy="66"
       r="0.99999851" />
    <circle
       style="fill:#5d8082;fill-opacity:1;stroke-width:0.0649999;stroke-linecap:round;stroke-linejoin:round"
       id="circle18"
       cx="134.54576"
       cy="66"
       r="0.99999851" />
    <circle
       style="fill:#502525;fill-opacity:1;stroke-width:0.0481022;stroke-linecap:round;stroke-linejoin:round"
       id="circle19"
       cx="137.54576"
       cy="66.000008"
       r="0.7400344" />
    <circle
       style="fill:#334546;fill-opacity:1;stroke-width:0.0481022;stroke-linecap:round;stroke-linejoin:round"
       id="circle20"
       cx="134.54576"
       cy="66"
       r="0.7400344" />
    <path
       style="font-size:3.175px;font-family:'Droid Sans';-inkscape-font-specification:'Droid Sans';fill:#334546;stroke-width:0.065;stroke-linecap:round;stroke-linejoin:round"
       d="m 75.532479,56.371297 c -0.08235,0.01552 -0.164228,0.03251 -0.245595,0.05101 l -0.23205,-1.020035 c -0.334435,0.07608 -0.663703,0.173458 -0.985777,0.293561 -0.0052,0.375544 0.0088,0.749152 0.04278,1.119968 -0.07515,0.03429 -0.149557,0.07024 -0.223191,0.107883 -0.121908,-0.787262 -0.15723,-1.589098 -0.112527,-2.398199 0.104951,-0.03642 0.21032,-0.07091 0.316062,-0.103484 -0.05377,0.346555 -0.09102,0.692504 -0.111024,1.037099 0.333114,-0.123439 0.673081,-0.223673 1.017878,-0.302114 l -0.209594,-0.921321 c 0.107164,-0.02439 0.214606,-0.04694 0.32228,-0.06767 0.140253,0.734435 0.280507,1.46887 0.42076,2.203304 z m 1.140092,-0.122918 c -0.244149,0.0081 -0.486109,0.02701 -0.72486,0.05749 l -0.02066,-0.155342 c 0.0763,-0.03097 0.153553,-0.0608 0.231719,-0.08951 l -0.206266,-2.017886 c -0.102549,-0.01022 -0.205621,-0.01887 -0.309198,-0.02591 l -0.02066,-0.155342 c 0.315512,-0.04328 0.632135,-0.072 0.94885,-0.08688 l 0.0064,0.15721 c -0.100426,0.02575 -0.200226,0.05289 -0.299349,0.0814 l 0.141667,2.026362 c 0.08234,0.01581 0.16432,0.03289 0.245911,0.05119 z m -0.231317,0.01097 c -0.08562,0.0053 -0.170923,0.01198 -0.25587,0.02007 l -0.201942,-1.986272 c -0.237966,0.02498 -0.475199,0.05851 -0.711201,0.100931 L 75.2281,54.146302 c 0.592525,-0.106797 1.191618,-0.159254 1.789961,-0.162479 l 1.5e-5,0.253545 c -0.238462,9.97e-4 -0.476916,0.01 -0.714865,0.02736 0.04601,0.664875 0.09203,1.32975 0.138043,1.994625 z m 1.959947,-1.972983 c 0.120765,0.02118 -0.234986,-0.005 -0.337801,0.02818 -0.102721,0.03219 -0.191975,0.08558 -0.267065,0.159183 -0.07403,0.07374 -0.132551,0.166048 -0.176165,0.276512 -0.04251,0.110491 0.834628,0.322572 0.815217,0.463446 -0.01998,0.144988 -0.888671,0.190455 -0.865833,0.305769 0.0239,0.114268 0.06243,0.21221 0.114882,0.293896 0.0525,0.08176 0.119194,0.146535 0.200408,0.195078 0.08129,0.04859 0.177797,0.07948 0.291135,0.09403 0.0855,0.01098 0.167733,0.01373 0.247356,0.008 0.07977,-0.0068 0.159324,-0.0153 0.238835,-0.0257 l -0.04278,0.248865 c -0.03946,0.0089 -0.07847,0.01651 -0.117135,0.02279 -0.03849,0.0053 -0.0784,0.0084 -0.119814,0.0094 -0.04047,0.0011 -0.08381,-9e-6 -0.13014,-0.0034 -0.04554,-0.0022 -0.09581,-0.0069 -0.151057,-0.0138 -0.153467,-0.01923 -0.283032,-0.06013 -0.391885,-0.125323 -0.108697,-0.0651 -0.19853,-0.15003 -0.269968,-0.256132 -0.0704,-0.105936 -0.123321,-0.231057 -0.157329,-0.375557 -0.05676,-0.241211 -0.08133,-0.62852 0.03469,-0.94707 0.05254,-0.141155 0.128525,-0.261229 0.229239,-0.359206 0.101751,-0.09783 0.227926,-0.170733 0.377643,-0.21641 0.14961,-0.04565 0.320491,-0.05848 0.508921,-0.03585 0.125591,0.01508 0.243646,0.04282 0.353237,0.08252 0.109592,0.0397 0.20568,0.08953 0.28791,0.148521 -0.05877,0.07188 -0.116728,0.144138 -0.173841,0.216769 -0.06494,-0.04455 -0.137537,-0.08499 -0.217683,-0.120853 -0.08015,-0.03587 -0.387125,-0.09229 -0.28103,-0.0737 1.8e-5,3e-6 3.7e-5,7e-6 5.5e-5,10e-6 z m 2.08446,2.604258 c -0.08408,-0.02975 -0.168539,-0.05862 -0.253333,-0.08657 l 0.340017,-1.004247 c -0.331596,-0.111895 -0.66889,-0.210068 -1.009855,-0.293106 l -0.251851,1.033602 c -0.08662,-0.02102 -0.173424,-0.04102 -0.260356,-0.05996 l 0.483871,-2.228667 c 0.105841,0.02292 0.211314,0.04723 0.316376,0.0729 l -0.227478,0.933575 c 0.348371,0.08491 0.692732,0.185432 1.031056,0.300165 l 0.307112,-0.907062 c 0.101546,0.03502 0.202521,0.07129 0.302883,0.108778 z"
       id="path20"
       aria-label="HITECH" />
    <path
       id="path21"
       d="m 76.545757,62.843324 h 0.432237 v 4.156679 h -0.432237 z m 0.856927,0 h 0.432238 v 4.156679 h -0.432238 z m 0.856928,0 h 0.432237 v 4.156679 h -0.432237 z m 0.856927,0 h 0.432237 v 4.156679 h -0.432237 z m 0.856927,0 h 0.432237 v 4.156679 h -0.432237 z m 0.856927,0 h 0.432238 v 4.156679 h -0.432238 z m 0.856928,0 h 0.432237 v 4.156679 h -0.432237 z m 0.856927,0 h 0.432237 v 4.156679 h -0.432237 z m 0.856927,0 h 0.432237 v 4.156679 h -0.432237 z m 0.856927,0 h 0.432238 v 4.156679 h -0.432238 z m 0.856928,0 h 0.432237 v 4.156679 H 85.11503 Z m 0.856927,0 h 0.432237 v 4.156679 h -0.432237 z m 0.856927,0 h 0.432237 v 4.156679 h -0.432237 z m 0.856927,0 h 0.432238 v 4.156679 h -0.432238 z m 0.856928,0 h 0.432237 v 4.156679 h -0.432237 z m 0.856927,0 h 0.432237 v 4.156679 h -0.432237 z m 0.856927,0 h 0.432237 v 4.156679 h -0.432237 z m 0.856927,0 h 0.432238 v 4.156679 H 91.11352 Z"
       style="fill:#82695d;fill-opacity:1;stroke-width:0.0275516;stroke-linecap:round;stroke-linejoin:round" />
    <rect
       style="fill:#cda895;fill-opacity:1;stroke:#a88a7c;stroke-width:0.296056;stroke-linecap:round;stroke-linejoin:miter;stroke-opacity:1"
       id="rect21"
       width="16.703943"
       height="1.7039428"
       x="122.69379"
       y="60.148029" />
    <g
       id="text22"
       style="font-size:11.9928px;font-family:C059;-inkscape-font-specification:C059;fill:#ffffff;fill-opacity:1;stroke:none;stroke-width:0.245521;stroke-linecap:round;stroke-linejoin:round"
       aria-label="An&#10;Old&#10;Computer"
       transform="translate(1,2.0000007)">
      <path
         d="m 84.813524,5.9036212 c -0.158849,0.00417 -0.317692,0.00748 -0.476502,0.00987 -0.66179,2.4039021 -1.690968,4.5668198 -2.891911,6.6878518 -0.433219,0.852804 -0.808442,1.093954 -1.53714,1.041426 1.7e-5,2e-6 -0.0511,-0.007 -0.05108,-0.007 -0.0037,0.02655 -0.07162,0.512547 -0.07531,0.539101 1.135676,0.151687 2.255918,0.265918 3.35803,0.351336 0.01812,-0.17832 0.03606,-0.357054 0.0537,-0.535861 -0.08275,-0.0064 -0.16559,-0.01304 -0.248514,-0.01983 -0.674152,-0.05513 -0.986635,-0.309123 -0.939602,-0.742607 0.01617,-0.149031 0.06815,-0.282032 0.162457,-0.469873 0.17049,-0.322869 0.337417,-0.647158 0.500037,-0.973319 1.074308,0.0945 2.139463,0.153064 3.191219,0.18571 0.18623,0.523768 0.376741,1.064692 0.559013,1.581642 0.06074,0.187353 0.08045,0.257372 0.07678,0.315083 -0.01174,0.184546 -0.320944,0.290828 -0.770983,0.272271 -0.17021,-0.007 -0.34078,-0.01462 -0.51169,-0.02283 -0.01394,0.179476 -0.02821,0.358682 -0.04271,0.537354 1.265935,0.06213 2.517508,0.09241 3.745754,0.102319 0.0091,-0.181011 0.01792,-0.362781 0.0264,-0.545122 3.39e-4,2e-6 -0.166501,-10e-4 -0.166162,-10e-4 -0.617624,-0.01591 -0.722324,-0.08919 -0.962552,-0.755907 -0.853594,-2.339631 -1.850454,-5.0923409 -2.999233,-7.550638 z m -0.450873,2.0042399 c 0.455226,1.1378487 0.879272,2.3006139 1.27565,3.4199889 -0.885354,-0.027 -1.779316,-0.07359 -2.679236,-0.146123 0.525294,-1.059704 1.000451,-2.1434662 1.403586,-3.2738659 z m 6.855045,1.1288538 c -0.656855,0.087039 -1.317117,0.1685048 -1.979006,0.2415149 0.0036,0.1803743 0.0063,0.3599519 0.0082,0.5387005 0.138364,-0.00471 0.27663,-0.00973 0.41477,-0.015038 0.435862,-0.00425 0.498021,0.068008 0.500464,0.6064747 0.0045,0.990611 -0.01356,1.962742 -0.0432,2.906627 -0.003,0.09502 -0.0061,0.189843 -0.0093,0.284446 -0.0031,0.09066 -0.0063,0.181144 -0.0095,0.271429 -0.01812,0.176491 -0.03277,0.24713 -0.08203,0.305802 -0.08608,0.105304 -0.312382,0.153959 -0.821638,0.163716 2.8e-5,0 -0.04743,-1.84e-4 -0.0474,-1.84e-4 -0.0064,0.139591 -0.01302,0.278829 -0.01979,0.417627 1.000637,0.0062 1.994982,-7.36e-4 2.974205,-0.01532 0.0044,-0.141028 0.0086,-0.282592 0.01271,-0.42462 3.9e-5,0 -0.04648,8.06e-4 -0.04644,8.05e-4 -0.779254,-0.01032 -0.881713,-0.07025 -0.869121,-0.495288 0.0052,-0.174026 0.01,-0.34886 0.0144,-0.524406 0.01046,-0.414746 0.01874,-0.834515 0.02403,-1.25834 0.0074,-0.596499 0.08838,-1.165705 0.211862,-1.458778 0.236452,-0.575103 0.742064,-1.0074586 1.230605,-1.0376729 0.296257,-0.018322 0.641111,0.1423747 0.816882,0.4052681 0.175193,0.2746228 0.261793,0.6605528 0.264356,1.2695308 0.0029,0.683981 -0.0017,1.356236 -0.011,2.013797 -0.0027,0.190981 -0.0058,0.381002 -0.0093,0.569956 -0.01477,0.181001 -0.02787,0.253492 -0.07498,0.314516 -0.08245,0.109722 -0.313587,0.163763 -0.810155,0.186213 4.4e-5,-10e-7 -0.04626,9.8e-4 -0.04622,9.79e-4 -0.0036,0.142643 -0.0074,0.284799 -0.01136,0.426398 0.972427,-0.01795 1.94706,-0.04271 2.902019,-0.06943 0.0025,-0.144022 0.0048,-0.288679 0.007,-0.433907 9.8e-5,-3e-6 -0.04553,0.0014 -0.04543,0.0014 -0.750833,-0.0014 -0.851943,-0.05887 -0.845631,-0.494904 0.0026,-0.178285 0.0049,-0.35755 0.0068,-0.537711 0.0069,-0.642188 0.0096,-1.298743 0.0059,-1.967037 -0.0052,-0.920441 -0.0461,-1.161263 -0.259833,-1.5964948 C 94.272017,9.014998 93.693439,8.670564 93.010954,8.7200219 92.26872,8.7738099 91.734118,9.2102571 91.2396,10.073587 91.2351,9.7313775 91.22801,9.3856937 91.21784,9.0367332 Z"
         id="path24"
         style="fill:#ffffff;fill-opacity:1;stroke:none" />
      <path
         d="m 84.344287,20.377565 c -1.143531,-0.04471 -2.169515,0.212287 -3.029807,0.800897 -1.0898,0.748978 -1.789506,1.947223 -1.817426,3.260429 -0.02747,1.291855 0.634778,2.522349 1.694142,3.291966 0.832071,0.601619 1.859213,0.894822 2.977795,0.875888 2.538591,-0.04297 4.301735,-1.791389 4.3279,-4.064332 0.02598,-2.256693 -1.695739,-4.068784 -4.152604,-4.164848 z m -0.04701,0.517319 c 0.864464,0.03138 1.554421,0.391674 1.983856,0.998806 0.44458,0.65737 0.574917,1.30525 0.557398,2.634758 -0.01736,1.317418 -0.164657,1.958916 -0.627825,2.613553 -0.446717,0.605024 -1.137809,0.937933 -2.062267,0.950327 -0.924018,0.01239 -1.669734,-0.29155 -2.168799,-0.920969 -0.520273,-0.654392 -0.709764,-1.354021 -0.682487,-2.735315 0.02663,-1.348405 0.254242,-2.030975 0.780369,-2.672887 0.53141,-0.627683 1.252054,-0.903399 2.219755,-0.868273 z m 7.347471,-0.371038 c -0.739176,0.03663 -1.486247,0.07045 -2.241825,0.100686 -0.0068,0.155847 -0.01341,0.311323 -0.01976,0.466644 0.200039,0.0025 0.399515,0.0047 0.598388,0.0068 0.449863,0.01543 0.506687,0.08059 0.491187,0.54513 -0.06243,1.871095 -0.08463,3.596013 -0.0595,5.444429 0.0023,0.166935 0.0049,0.333883 0.0079,0.501052 -0.0093,0.160092 -0.0201,0.224026 -0.06786,0.277434 -0.08351,0.09612 -0.313828,0.138454 -0.842005,0.149394 1.16e-4,0 -0.08626,4.8e-5 -0.08615,4.8e-5 0.003,0.128414 0.0063,0.256877 0.0098,0.385486 1.058976,-0.0014 2.109819,6.4e-4 3.13712,0.0042 -0.0026,-0.128375 -0.005,-0.256571 -0.0073,-0.3847 1.93e-4,1e-6 -0.08382,-2.8e-4 -0.08363,-2.79e-4 -0.802691,-0.02405 -0.914196,-0.0772 -0.920312,-0.461287 -0.0025,-0.156337 -0.0047,-0.312473 -0.0066,-0.468589 -0.02751,-2.250157 0.0083,-4.266148 0.09048,-6.566433 z m 5.699134,7.979933 c -0.08357,0.0027 2.066657,-0.06846 1.983087,-0.06575 2.3e-5,0.0025 -0.0039,-0.465796 -0.0039,-0.463341 -8.31e-4,-3e-6 -0.203361,-7.24e-4 -0.204193,-7.27e-4 -0.647544,-0.03463 -0.706994,-0.09988 -0.711122,-0.785505 -0.0139,-2.309426 0.0032,-4.311143 0.04181,-6.68866 -0.741291,0.04668 -1.490336,0.09283 -2.243383,0.137443 1.34e-4,-0.0063 -0.0098,0.476362 -0.0097,0.470091 0.01073,-5.3e-5 0.668372,-0.0036 0.6791,-0.0036 0.435847,0.0084 0.491247,0.07383 0.483837,0.542135 -0.01303,0.823645 -0.02271,1.624079 -0.02825,2.434293 -0.421804,-0.5453 -0.913312,-0.790938 -1.587551,-0.790442 -1.310798,9.66e-4 -2.357385,1.164528 -2.353505,2.69048 0.0038,1.504986 1.018151,2.59329 2.361969,2.6008 0.731568,0.0041 1.220921,-0.284071 1.582906,-0.925122 0.0025,0.282187 0.0055,0.564374 0.0089,0.847942 z m -1.37407,-4.63658 c 0.476253,-9.8e-5 0.922623,0.320243 1.12787,0.811209 0.148321,0.320056 0.21613,0.757367 0.216919,1.279575 0.0019,1.247115 -0.514829,2.049083 -1.349798,2.045093 -0.822556,-0.0039 -1.330675,-0.712832 -1.334231,-1.891655 -0.0019,-0.63741 0.07076,-1.115926 0.225107,-1.466714 0.202012,-0.478503 0.638648,-0.777411 1.114133,-0.777508 z"
         id="path25"
         style="fill:#ffffff;fill-opacity:1;stroke:none" />
      <path
         d="m 87.666864,34.112125 c -0.154652,0.0023 -0.309644,0.0049 -0.464956,0.0079 -0.148447,0.223301 -0.29628,0.447301 -0.44387,0.672518 -0.930712,-0.57217 -1.426605,-0.715123 -2.283964,-0.676602 -1.196812,0.05377 -2.196249,0.570935 -2.945032,1.558058 -0.72,0.943641 -0.96278,1.947741 -0.821331,3.129636 0.290969,2.431227 2.075419,4.0307 4.277278,4.029735 1.838359,-8.05e-4 3.07138,-1.076503 3.304461,-3.139628 -0.183741,-0.0352 -0.367906,-0.06961 -0.552518,-0.103189 -0.275028,1.80704 -1.18725,2.667448 -2.606572,2.675036 -1.718229,0.0092 -2.543613,-1.111127 -2.784137,-3.58824 -0.127582,-1.313949 -0.04732,-2.16942 0.313017,-2.889935 0.324004,-0.665761 1.058072,-1.107178 1.874831,-1.144658 0.877852,-0.04028 1.67851,0.352455 2.191262,1.067929 0.249408,0.357939 0.463866,0.79936 0.793542,1.699455 0.175172,-0.0015 0.350026,-0.0024 0.524524,-0.0028 -0.113077,-1.112284 -0.24621,-2.226818 -0.376535,-3.295169 z m 4.074705,2.860233 c -1.446612,-0.03484 -2.489203,1.230792 -2.470808,2.925913 0.01781,1.641417 1.064295,3.172053 2.415847,3.290664 1.368006,0.120056 2.52548,-1.279153 2.540601,-3.068573 0.01489,-1.762293 -1.111518,-3.114911 -2.48564,-3.148004 z m 0.01355,0.510969 c 0.806931,0.02226 1.287039,0.904408 1.277708,2.569141 -0.0095,1.701587 -0.506472,2.63096 -1.321034,2.565797 -0.819418,-0.06555 -1.218856,-1.046997 -1.225547,-2.677284 -0.0068,-1.664749 0.386758,-2.481994 1.268873,-2.457654 z m 5.126432,-0.160401 c -0.277214,0.0085 -1.738552,0.05084 -2.015767,0.05931 0.0023,0.174126 0.0043,0.349225 0.0061,0.525223 0.01813,7.35e-4 0.447666,0.0183 0.465792,0.01904 0.430342,0.02998 0.488936,0.105612 0.490445,0.642338 0.0028,0.995907 -0.0052,2.030643 -0.03164,3.098662 -0.0043,0.174628 -0.0091,0.35034 -0.01448,0.527123 4e-6,-1.36e-4 -0.0034,0.109066 -0.0034,0.10893 -0.0177,0.203688 -0.03209,0.285568 -0.07952,0.350395 -0.0833,0.117144 -0.299549,0.154406 -0.785817,0.126545 -3.71e-4,-3.2e-5 -0.04481,-0.0038 -0.04519,-0.0039 -0.0063,0.164126 -0.01317,0.3292 -0.02057,0.495214 0.956075,0.08716 1.889452,0.170735 2.841067,0.248171 0.0065,-0.170994 0.01254,-0.340937 0.01817,-0.509824 -4.4e-5,-4e-6 -0.04489,-0.0035 -0.04494,-0.0035 -0.741752,-0.08545 -0.838521,-0.166437 -0.823464,-0.676429 0.0058,-0.197172 0.01104,-0.392985 0.01572,-0.587423 0.01542,-0.641709 0.02484,-1.270036 0.02976,-1.884102 0.0092,-1.149808 0.552169,-1.945306 1.282074,-1.917423 0.636865,0.02433 0.96491,0.545406 0.959045,1.598972 -0.0042,0.760562 -0.01355,1.544095 -0.03009,2.34904 -0.0045,0.220992 -0.0096,0.443822 -0.01532,0.668472 -0.01581,0.181888 -0.02984,0.280343 -0.0878,0.347284 -0.07076,0.122766 -0.296732,0.164816 -0.779688,0.143215 -3.7e-5,-2e-6 -0.04486,-0.0033 -0.0449,-0.0033 -0.0054,0.169565 -0.01128,0.3402 -0.01754,0.511901 0.950984,0.07477 1.891012,0.140138 2.838592,0.193081 0.004,-0.175322 0.009,-0.349502 0.0125,-0.522538 -2e-5,-1e-6 -0.0447,-0.0024 -0.0447,-0.0024 -0.73792,-0.06827 -0.83534,-0.150921 -0.8242,-0.659805 0.005,-0.207147 0.009,-0.412727 0.0123,-0.616728 0.0112,-0.616328 0.0187,-1.219566 0.0234,-1.809136 0.0106,-1.322984 0.50489,-2.110576 1.2812,-2.090584 0.6294,0.01621 0.94207,0.563206 0.93782,1.754677 -0.003,0.726745 -0.008,1.474899 -0.0169,2.243428 -0.003,0.220423 -0.005,0.442721 -0.009,0.666884 -0.014,0.200044 -0.0268,0.300775 -0.0837,0.370718 -0.0689,0.127011 -0.29334,0.177096 -0.77375,0.168376 -10e-6,-1e-6 -0.0447,-0.0022 -0.0447,-0.0022 -0.004,0.173475 -0.007,0.348103 -0.0115,0.523881 0.94635,0.04863 1.88458,0.08346 2.82864,0.102652 3e-5,-0.0027 0.005,-0.526872 0.005,-0.529617 -1e-5,0 -0.0446,-8.65e-4 -0.0446,-8.65e-4 -0.73548,-0.04371 -0.834,-0.125531 -0.82863,-0.656536 4e-5,-0.0041 0.006,-0.607944 0.006,-0.612001 0.007,-0.865272 0.0107,-1.704861 0.0118,-2.517323 0.001,-0.816322 -0.0664,-1.090433 -0.35308,-1.528573 -0.31991,-0.477069 -0.77411,-0.734177 -1.30426,-0.745539 -0.71779,-0.01538 -1.25059,0.354448 -1.72676,1.217006 -0.188723,-0.773602 -0.792969,-1.283667 -1.542819,-1.308576 -0.682434,-0.02267 -1.175545,0.31461 -1.610478,1.082409 -10e-4,-0.321459 -0.003,-0.639825 -0.0058,-0.954721 z m 9.516389,0.193906 c -0.6326,0.04974 -1.263,0.09551 -1.89722,0.137653 -2e-5,-0.0061 0.002,0.555307 0.002,0.549222 0.13186,10e-4 0.26366,0.0019 0.39544,0.0026 0.41711,0.01501 0.47243,0.09014 0.47381,0.650151 0.005,1.910942 0.005,3.988333 -0.007,6.226137 3e-5,-0.0048 -0.004,0.745933 -0.004,0.74117 -0.0127,0.218347 -0.0247,0.312724 -0.0706,0.390912 -0.0801,0.140221 -0.29678,0.203005 -0.7848,0.207838 -1e-5,0 -0.0454,-10e-4 -0.0454,-10e-4 3e-5,-0.0026 -0.008,0.575667 -0.008,0.573095 0.99018,0.02414 1.97445,0.0261 2.96446,0.0053 -2e-5,-0.0025 -0.005,-0.571557 -0.005,-0.57401 1e-5,0 -0.12482,0.0024 -0.12481,0.0024 -0.76074,-0.01758 -0.86247,-0.104517 -0.86337,-0.664884 0,-0.0042 -0.001,-0.675093 -0.001,-0.679273 -9e-5,-0.04826 -0.005,-2.11047 -0.005,-2.15873 0.37001,0.841439 0.78285,1.186006 1.4769,1.16929 0.68305,-0.01645 1.23207,-0.428568 1.62034,-1.153999 0.13043,-0.245564 0.2403,-0.512416 0.32766,-0.792386 0.16462,-0.527657 0.2497,-1.102817 0.24225,-1.677423 -0.007,-0.56855 -0.10466,-1.098784 -0.28277,-1.566014 -0.0977,-0.256042 -0.21976,-0.49317 -0.3648,-0.707527 -0.40851,-0.603736 -0.91525,-0.893713 -1.52748,-0.884835 -0.67756,0.0098 -1.12762,0.33759 -1.50702,1.113253 -1.1e-4,-0.02961 -0.003,-0.879264 -0.003,-0.908878 z m 1.31671,0.484137 c 0.75579,-0.01065 1.19733,0.839059 1.21296,2.426056 0.0173,1.757162 -0.40523,2.857412 -1.20929,2.874173 -0.80371,0.01675 -1.31454,-1.078151 -1.31979,-2.654909 -0.006,-1.708795 0.48365,-2.633591 1.31612,-2.64532 z m 7.477,5.514368 c 0.68324,-0.09688 1.357,-0.194944 2.04268,-0.294536 -0.0103,-0.199302 -0.0199,-0.397223 -0.0289,-0.593751 0.0186,-0.0017 -0.3001,0.02728 -0.2815,0.02558 -0.65142,0.03161 -0.71701,-0.04964 -0.74744,-0.935398 -0.054,-1.570775 -0.0722,-3.075374 -0.074,-4.49334 -0.42818,0.04602 -1.67592,0.182075 -2.1041,0.228096 8.7e-4,0.177884 0.002,0.356875 0.003,0.536913 0.0146,-6.73e-4 0.55376,-0.02596 0.56832,-0.02663 0.42498,-0.0076 0.4801,0.06339 0.48558,0.605489 0.005,0.518645 0.013,1.047432 0.024,1.585479 0.0154,0.752341 -0.0372,1.212572 -0.19123,1.665038 -0.21501,0.634285 -0.64706,1.026991 -1.19556,1.069886 -0.34674,0.02712 -0.64181,-0.107819 -0.79561,-0.380065 -0.1519,-0.255644 -0.18057,-0.399932 -0.19841,-1.156133 -0.0327,-1.387897 -0.0485,-2.719328 -0.0552,-3.981222 -0.64655,0.07078 -1.28658,0.139378 -1.92829,0.205364 -3e-5,-0.0049 0.004,0.550323 0.004,0.545433 0.13917,-0.0045 0.2784,-0.0093 0.41776,-0.01414 0.4187,-0.0019 0.47362,0.07048 0.47917,0.623618 0.009,0.928082 0.0236,1.892012 0.0453,2.888198 0.0154,0.70848 0.0696,1.036444 0.24561,1.354076 0.31899,0.570182 0.86639,0.867424 1.54019,0.811505 0.74353,-0.06171 1.2339,-0.50441 1.69557,-1.434632 0.0143,0.382863 0.0305,0.771278 0.0491,1.165165 z m 4.31126,-6.430009 c 0.007,-0.785161 0.0197,-1.560879 0.0352,-2.314473 -0.005,1e-4 -0.46998,0.01042 -0.4747,0.01052 -0.14345,1.495859 -0.65124,2.319128 -1.57058,2.430843 -2.7e-4,0.157508 -3.1e-4,0.315817 -9e-5,0.474874 0.30968,-0.01419 0.62059,-0.02814 0.93197,-0.04162 -0.001,1.030096 0.009,2.101247 0.0396,3.204484 0.0253,0.910961 0.0655,1.251158 0.1927,1.550715 0.20786,0.552287 0.67804,0.820541 1.33639,0.757868 1.02086,-0.09718 1.62451,-1.060303 1.59441,-2.397549 -0.002,-0.07589 -0.004,-0.163663 -0.0174,-0.288717 -0.16065,0.0085 -0.32114,0.01736 -0.48144,0.02647 -0.0114,1.138769 -0.27219,1.770784 -0.83128,1.8173 -0.26143,0.02175 -0.49555,-0.117994 -0.5844,-0.336376 -0.0756,-0.179263 -0.12296,-0.50655 -0.13649,-0.972209 -0.0341,-1.173524 -0.0425,-2.31271 -0.0373,-3.406288 0.56181,-0.02186 1.12746,-0.04159 1.69538,-0.05797 0.002,-0.17062 0.004,-0.340519 0.007,-0.509609 -0.56929,0.01434 -1.13611,0.03198 -1.699,0.05173 z m 7.7559,2.764157 c 0.0554,-1.754401 -0.87315,-3.010114 -2.35299,-3.024277 -1.53115,-0.01465 -2.69291,1.287519 -2.67488,3.142409 0.0172,1.771488 1.13675,2.891966 2.6815,2.819591 1.10517,-0.05178 1.84312,-0.651517 2.32891,-1.776439 -0.13657,-0.07775 -0.27314,-0.155193 -0.40966,-0.232311 -0.488,0.918734 -0.94768,1.297065 -1.72721,1.323618 -0.58861,0.02005 -1.02517,-0.223201 -1.33855,-0.771445 -0.21662,-0.365174 -0.3183,-0.797984 -0.30855,-1.468219 1.25315,-0.03627 2.52194,-0.04632 3.80143,-0.01293 z m -3.7894,-0.50874 c 0.002,-0.372448 0.0516,-0.639578 0.17393,-0.972164 0.25751,-0.71328 0.65037,-1.050913 1.23205,-1.046922 0.71922,0.0049 1.16471,0.627385 1.1388,1.574807 -0.009,0.329588 -0.11673,0.421994 -0.49436,0.421128 -0.68736,-0.0016 -1.37114,0.007 -2.05042,0.02315 z m 6.77072,-2.10589 c -0.73577,-0.02051 -1.46434,-0.02686 -2.18671,-0.02102 -0.0102,0.1635 -0.0202,0.32743 -0.0298,0.491651 0.16596,0.0081 0.33221,0.01685 0.49876,0.0263 0.46393,0.03784 0.51823,0.112817 0.48743,0.604584 -0.0571,0.911721 -0.10174,1.840757 -0.11994,2.774653 -0.004,0.184138 -0.006,0.3688 -0.008,0.553925 -0.0132,0.177096 -0.0246,0.247171 -0.0717,0.304888 -0.0827,0.104495 -0.31493,0.140707 -0.81703,0.143082 -2e-5,0 -0.0466,-8.72e-4 -0.0467,-8.72e-4 0.002,0.144026 0.004,0.28844 0.007,0.433223 1.03309,0.0133 2.07222,0.06208 3.11601,0.158785 0.002,-0.139624 0.004,-0.279111 0.007,-0.418435 -0.0708,-0.0068 -0.1415,-0.01339 -0.21221,-0.01977 -0.78671,-0.0942 -0.8955,-0.146605 -0.88669,-0.573446 0.004,-0.171446 0.008,-0.342599 0.0135,-0.513405 0.001,-0.03882 0.003,-0.07763 0.004,-0.116418 0.0785,-1.95202 0.95998,-3.346433 1.94175,-3.277611 -0.19324,0.161704 -0.25412,0.271093 -0.27452,0.487568 -0.0344,0.365505 0.22718,0.660438 0.62234,0.711771 0.45705,0.05937 0.78962,-0.203442 0.84116,-0.662254 0.0631,-0.561422 -0.32329,-0.989294 -0.99442,-1.068211 -0.79326,-0.09328 -1.52785,0.412593 -2.00385,1.396113 0.0341,-0.472913 0.072,-0.945822 0.11176,-1.415103 z"
         id="path26"
         style="fill:#ffffff;fill-opacity:1;stroke:none" />
    </g>
  </g>
</svg>
